<svg width="1440" height="900" viewBox="0 0 1440 900" xmlns="http://www.w3.org/2000/svg">
<defs><linearGradient id="g" x1="0" y1="0" x2="1" y2="1"><stop stop-color="#070b16"/><stop offset=".5" stop-color="#1e1b4b"/><stop offset="1" stop-color="#083344"/></linearGradient><linearGradient id="b" x1="0" y1="0" x2="1" y2="1"><stop stop-color="#7c3aed"/><stop offset="1" stop-color="#06b6d4"/></linearGradient></defs>
<rect width="1440" height="900" fill="url(#g)"/><rect x="70" y="40" width="1300" height="96" rx="28" fill="#07111f" opacity=".88" stroke="#22314d"/>
<image href="../logo.svg" x="100" y="62" width="52" height="52"/><text x="170" y="88" fill="#e5e7eb" font-family="Arial" font-size="28" font-weight="700">VidForge</text><text x="170" y="112" fill="#94a3b8" font-family="Arial" font-size="16">Containerised FFmpeg render queue for ZimaOS and home servers</text><rect x="1140" y="68" width="190" height="42" rx="14" fill="#1e293b"/><text x="1172" y="95" fill="#e5e7eb" font-family="Arial" font-size="15" font-weight="700">Purge temp files</text>
<rect x="70" y="170" width="430" height="650" rx="28" fill="#0f172a" stroke="#22314d"/><text x="105" y="215" fill="#e5e7eb" font-family="Arial" font-size="24" font-weight="700">Create render job</text><text x="105" y="246" fill="#94a3b8" font-family="Arial" font-size="14">Upload media, captions and queue a render.</text>
<text x="105" y="292" fill="#cbd5e1" font-family="Arial" font-size="13" font-weight="700">Job name</text><rect x="105" y="305" width="360" height="42" rx="14" fill="#0b1220" stroke="#334155"/><text x="122" y="331" fill="#64748b" font-family="Arial" font-size="14">Weekend compilation</text>
<text x="105" y="374" fill="#cbd5e1" font-family="Arial" font-size="13" font-weight="700">Resolution</text><text x="295" y="374" fill="#cbd5e1" font-family="Arial" font-size="13" font-weight="700">Renderer</text><rect x="105" y="387" width="170" height="42" rx="14" fill="#0b1220" stroke="#334155"/><rect x="295" y="387" width="170" height="42" rx="14" fill="#0b1220" stroke="#334155"/><text x="122" y="414" fill="#e5e7eb" font-family="Arial" font-size="14">2560 × 1440</text><text x="312" y="414" fill="#e5e7eb" font-family="Arial" font-size="14">Software x264</text>
<text x="105" y="456" fill="#cbd5e1" font-family="Arial" font-size="13" font-weight="700">Caption order</text><text x="295" y="456" fill="#cbd5e1" font-family="Arial" font-size="13" font-weight="700">Caption style</text><rect x="105" y="469" width="170" height="42" rx="14" fill="#0b1220" stroke="#334155"/><rect x="295" y="469" width="170" height="42" rx="14" fill="#0b1220" stroke="#334155"/><text x="122" y="496" fill="#e5e7eb" font-family="Arial" font-size="14">Random loop</text><text x="312" y="496" fill="#67e8f9" font-family="Arial" font-size="14">White + neon glow</text>
<text x="105" y="538" fill="#cbd5e1" font-family="Arial" font-size="13" font-weight="700">Captions, one per line</text><rect x="105" y="551" width="360" height="82" rx="14" fill="#0b1220" stroke="#334155"/><text x="122" y="582" fill="#e5e7eb" font-family="Arial" font-size="14">Caption A</text><text x="122" y="608" fill="#e5e7eb" font-family="Arial" font-size="14">Caption B</text>
<text x="105" y="660" fill="#cbd5e1" font-family="Arial" font-size="13" font-weight="700">Images / videos / music / caption file</text><rect x="105" y="673" width="360" height="58" rx="16" fill="#0b1220" stroke="#475569" stroke-dasharray="7 7"/><text x="135" y="709" fill="#94a3b8" font-family="Arial" font-size="14">Upload per-job media files</text><rect x="105" y="760" width="170" height="48" rx="14" fill="url(#b)"/><text x="138" y="790" fill="white" font-family="Arial" font-size="16" font-weight="700">Add to queue</text>
<g><rect x="535" y="170" width="190" height="100" rx="20" fill="#0b1220" stroke="#22314d"/><rect x="745" y="170" width="190" height="100" rx="20" fill="#0b1220" stroke="#22314d"/><rect x="955" y="170" width="190" height="100" rx="20" fill="#0b1220" stroke="#22314d"/><rect x="1165" y="170" width="190" height="100" rx="20" fill="#0b1220" stroke="#22314d"/><text x="565" y="220" fill="#e5e7eb" font-family="Arial" font-size="34" font-weight="700">2</text><text x="565" y="245" fill="#94a3b8" font-family="Arial" font-size="15">Queued</text><text x="775" y="220" fill="#e5e7eb" font-family="Arial" font-size="34" font-weight="700">1</text><text x="775" y="245" fill="#94a3b8" font-family="Arial" font-size="15">Running</text><text x="985" y="220" fill="#e5e7eb" font-family="Arial" font-size="34" font-weight="700">8</text><text x="985" y="245" fill="#94a3b8" font-family="Arial" font-size="15">Completed</text><text x="1195" y="220" fill="#e5e7eb" font-family="Arial" font-size="34" font-weight="700">0</text><text x="1195" y="245" fill="#94a3b8" font-family="Arial" font-size="15">Failed</text></g>
<rect x="535" y="300" width="820" height="520" rx="28" fill="#0f172a" stroke="#22314d"/><text x="570" y="350" fill="#e5e7eb" font-family="Arial" font-size="24" font-weight="700">Queue dashboard</text>
<g><rect x="570" y="385" width="750" height="135" rx="18" fill="#0b1220" stroke="#22314d"/><text x="595" y="425" fill="#e5e7eb" font-family="Arial" font-size="20" font-weight="700">Weekend compilation</text><rect x="1190" y="402" width="90" height="30" rx="15" fill="#164e63"/><text x="1208" y="423" fill="#a5f3fc" font-family="Arial" font-size="14" font-weight="700">running</text><rect x="595" y="455" width="690" height="12" rx="6" fill="#1e293b"/><rect x="595" y="455" width="435" height="12" rx="6" fill="url(#b)"/><text x="595" y="493" fill="#94a3b8" font-family="Arial" font-size="14">63% · Built right image section · random neon captions</text></g>
<g><rect x="570" y="545" width="750" height="135" rx="18" fill="#0b1220" stroke="#22314d"/><text x="595" y="585" fill="#e5e7eb" font-family="Arial" font-size="20" font-weight="700">Product reel</text><rect x="1180" y="562" width="100" height="30" rx="15" fill="#422006"/><text x="1202" y="583" fill="#fde68a" font-family="Arial" font-size="14" font-weight="700">queued</text><rect x="595" y="615" width="690" height="12" rx="6" fill="#1e293b"/><text x="595" y="653" fill="#94a3b8" font-family="Arial" font-size="14">0% · Waiting for worker</text></g>
<g filter="none"><text x="823" y="770" text-anchor="middle" fill="#22d3ee" stroke="#a855f7" stroke-width="10" opacity=".35" font-family="Arial" font-size="46" font-weight="900">NEON CAPTION PREVIEW</text><text x="823" y="770" text-anchor="middle" fill="#fff" stroke="#22d3ee" stroke-width="2" font-family="Arial" font-size="42" font-weight="900">NEON CAPTION PREVIEW</text></g>
</svg>
