<svg width="430" height="932" viewBox="0 0 430 932" xmlns="http://www.w3.org/2000/svg"><defs><linearGradient id="g" x1="0" y1="0" x2="1" y2="1"><stop stop-color="#070b16"/><stop offset=".55" stop-color="#1e1b4b"/><stop offset="1" stop-color="#083344"/></linearGradient><linearGradient id="b" x1="0" y1="0" x2="1" y2="1"><stop stop-color="#7c3aed"/><stop offset="1" stop-color="#06b6d4"/></linearGradient></defs><rect width="430" height="932" fill="url(#g)"/><rect x="14" y="18" width="402" height="78" rx="20" fill="#07111f" opacity=".9" stroke="#22314d"/><image href="../../app/static/logo.svg" x="30" y="33" width="46" height="46"/><text x="88" y="59" fill="#e5e7eb" font-family="Arial" font-size="22" font-weight="700">VidForge</text><text x="88" y="79" fill="#94a3b8" font-family="Arial" font-size="12">Mobile render dashboard</text><rect x="14" y="120" width="402" height="450" rx="22" fill="#0f172a" stroke="#22314d"/><text x="34" y="156" fill="#e5e7eb" font-family="Arial" font-size="20" font-weight="700">Create render job</text><g fill="#0b1220" stroke="#334155"><rect x="34" y="185" width="362" height="48" rx="14"/><rect x="34" y="260" width="362" height="48" rx="14"/><rect x="34" y="335" width="362" height="82" rx="14"/><rect x="34" y="445" width="362" height="54" rx="16" stroke-dasharray="6 6"/></g><rect x="34" y="520" width="160" height="42" rx="14" fill="url(#b)"/><text x="65" y="547" fill="white" font-family="Arial" font-size="15" font-weight="700">Add to queue</text><g><rect x="14" y="594" width="192" height="78" rx="18" fill="#0b1220" stroke="#22314d"/><rect x="224" y="594" width="192" height="78" rx="18" fill="#0b1220" stroke="#22314d"/><text x="34" y="637" fill="#e5e7eb" font-family="Arial" font-size="28" font-weight="700">1</text><text x="34" y="657" fill="#94a3b8" font-family="Arial" font-size="13">Running</text><text x="244" y="637" fill="#e5e7eb" font-family="Arial" font-size="28" font-weight="700">5</text><text x="244" y="657" fill="#94a3b8" font-family="Arial" font-size="13">Completed</text></g><rect x="14" y="695" width="402" height="205" rx="22" fill="#0f172a" stroke="#22314d"/><text x="34" y="732" fill="#e5e7eb" font-family="Arial" font-size="20" font-weight="700">Queue dashboard</text><rect x="34" y="758" width="362" height="116" rx="16" fill="#0b1220" stroke="#22314d"/><text x="52" y="792" fill="#e5e7eb" font-family="Arial" font-size="16" font-weight="700">Weekend compilation</text><rect x="298" y="774" width="78" height="26" rx="13" fill="#164e63"/><text x="313" y="792" fill="#a5f3fc" font-family="Arial" font-size="12" font-weight="700">running</text><rect x="52" y="820" width="324" height="10" rx="5" fill="#1e293b"/><rect x="52" y="820" width="210" height="10" rx="5" fill="url(#b)"/><text x="52" y="852" fill="#94a3b8" font-family="Arial" font-size="12">65% · Built right image section</text></svg>
